<mxfile host="app.diagrams.net" modified="2023-06-27T11:43:14.573Z" agent="Mozilla/5.0 (Windows NT 10.0; Win64; x64) AppleWebKit/537.36 (KHTML, like Gecko) Chrome/114.0.0.0 Safari/537.36" etag="TrSCOmes8FOcjhx9g2XO" version="21.5.0" type="github">
  <diagram name="Page-1" id="74e2e168-ea6b-b213-b513-2b3c1d86103e">
    <mxGraphModel dx="2074" dy="1067" grid="1" gridSize="10" guides="1" tooltips="1" connect="1" arrows="1" fold="1" page="1" pageScale="1" pageWidth="1100" pageHeight="850" background="none" math="0" shadow="0">
      <root>
        <mxCell id="0" />
        <mxCell id="1" parent="0" />
        <mxCell id="77e6c97f196da883-33" style="edgeStyle=orthogonalEdgeStyle;rounded=1;html=1;labelBackgroundColor=none;startArrow=none;startFill=0;startSize=5;endArrow=classicThin;endFill=1;endSize=5;jettySize=auto;orthogonalLoop=1;strokeWidth=1;fontFamily=Verdana;fontSize=8" parent="1" edge="1">
          <mxGeometry relative="1" as="geometry">
            <mxPoint x="430" y="60" as="sourcePoint" />
            <mxPoint x="430" y="60" as="targetPoint" />
          </mxGeometry>
        </mxCell>
        <mxCell id="77e6c97f196da883-39" style="edgeStyle=orthogonalEdgeStyle;rounded=1;html=1;labelBackgroundColor=none;startArrow=none;startFill=0;startSize=5;endArrow=classicThin;endFill=1;endSize=5;jettySize=auto;orthogonalLoop=1;strokeWidth=1;fontFamily=Verdana;fontSize=8" parent="1" edge="1">
          <mxGeometry relative="1" as="geometry">
            <mxPoint x="430" y="60" as="sourcePoint" />
            <mxPoint x="430" y="60" as="targetPoint" />
          </mxGeometry>
        </mxCell>
        <mxCell id="77e6c97f196da883-40" style="edgeStyle=orthogonalEdgeStyle;rounded=1;html=1;labelBackgroundColor=none;startArrow=none;startFill=0;startSize=5;endArrow=classicThin;endFill=1;endSize=5;jettySize=auto;orthogonalLoop=1;strokeWidth=1;fontFamily=Verdana;fontSize=8" parent="1" edge="1">
          <mxGeometry relative="1" as="geometry">
            <mxPoint x="430" y="60" as="sourcePoint" />
            <mxPoint x="430" y="60" as="targetPoint" />
          </mxGeometry>
        </mxCell>
        <mxCell id="107ba76e4e335f99-1" style="edgeStyle=orthogonalEdgeStyle;rounded=1;html=1;labelBackgroundColor=none;startArrow=none;startFill=0;startSize=5;endArrow=classicThin;endFill=1;endSize=5;jettySize=auto;orthogonalLoop=1;strokeWidth=1;fontFamily=Verdana;fontSize=8" parent="1" edge="1">
          <mxGeometry relative="1" as="geometry">
            <mxPoint x="430" y="60" as="sourcePoint" />
            <mxPoint x="430" y="60" as="targetPoint" />
          </mxGeometry>
        </mxCell>
        <mxCell id="107ba76e4e335f99-3" style="edgeStyle=orthogonalEdgeStyle;rounded=1;html=1;labelBackgroundColor=none;startArrow=none;startFill=0;startSize=5;endArrow=classicThin;endFill=1;endSize=5;jettySize=auto;orthogonalLoop=1;strokeColor=#000000;strokeWidth=1;fontFamily=Verdana;fontSize=8;fontColor=#000000;" parent="1" edge="1">
          <mxGeometry relative="1" as="geometry">
            <mxPoint x="430" y="60" as="sourcePoint" />
            <mxPoint x="430" y="60" as="targetPoint" />
          </mxGeometry>
        </mxCell>
        <mxCell id="107ba76e4e335f99-6" style="edgeStyle=orthogonalEdgeStyle;rounded=1;html=1;labelBackgroundColor=none;startArrow=none;startFill=0;startSize=5;endArrow=classicThin;endFill=1;endSize=5;jettySize=auto;orthogonalLoop=1;strokeWidth=1;fontFamily=Verdana;fontSize=8" parent="1" edge="1">
          <mxGeometry relative="1" as="geometry">
            <mxPoint x="430" y="60" as="sourcePoint" />
            <mxPoint x="430" y="60" as="targetPoint" />
          </mxGeometry>
        </mxCell>
        <mxCell id="j9h0Mle54H-UHNLb4YzA-19" value="SMS RELAY 1.0" style="swimlane;childLayout=stackLayout;resizeParent=1;resizeParentMax=0;startSize=20;html=1;" vertex="1" parent="1">
          <mxGeometry x="10" y="10" width="1080" height="830" as="geometry" />
        </mxCell>
        <mxCell id="j9h0Mle54H-UHNLb4YzA-27" value="" style="edgeStyle=orthogonalEdgeStyle;rounded=0;orthogonalLoop=1;jettySize=auto;html=1;dashed=1;endArrow=none;endFill=0;" edge="1" parent="j9h0Mle54H-UHNLb4YzA-19" source="j9h0Mle54H-UHNLb4YzA-24" target="j9h0Mle54H-UHNLb4YzA-26">
          <mxGeometry relative="1" as="geometry" />
        </mxCell>
        <mxCell id="j9h0Mle54H-UHNLb4YzA-20" value="ESP32" style="swimlane;startSize=20;html=1;" vertex="1" parent="j9h0Mle54H-UHNLb4YzA-19">
          <mxGeometry y="20" width="540" height="810" as="geometry" />
        </mxCell>
        <mxCell id="j9h0Mle54H-UHNLb4YzA-25" value="" style="edgeStyle=orthogonalEdgeStyle;rounded=0;orthogonalLoop=1;jettySize=auto;html=1;" edge="1" parent="j9h0Mle54H-UHNLb4YzA-20" source="j9h0Mle54H-UHNLb4YzA-23" target="j9h0Mle54H-UHNLb4YzA-24">
          <mxGeometry relative="1" as="geometry" />
        </mxCell>
        <mxCell id="j9h0Mle54H-UHNLb4YzA-23" value="BOOT" style="strokeWidth=2;html=1;shape=mxgraph.flowchart.start_2;whiteSpace=wrap;" vertex="1" parent="j9h0Mle54H-UHNLb4YzA-20">
          <mxGeometry x="240" y="30" width="60" height="60" as="geometry" />
        </mxCell>
        <mxCell id="j9h0Mle54H-UHNLb4YzA-29" value="" style="edgeStyle=orthogonalEdgeStyle;rounded=0;orthogonalLoop=1;jettySize=auto;html=1;" edge="1" parent="j9h0Mle54H-UHNLb4YzA-20" source="j9h0Mle54H-UHNLb4YzA-24" target="j9h0Mle54H-UHNLb4YzA-28">
          <mxGeometry relative="1" as="geometry" />
        </mxCell>
        <mxCell id="j9h0Mle54H-UHNLb4YzA-24" value="SETUP&lt;br&gt;DE PINOS" style="whiteSpace=wrap;html=1;strokeWidth=2;" vertex="1" parent="j9h0Mle54H-UHNLb4YzA-20">
          <mxGeometry x="212.5" y="105" width="115" height="50" as="geometry" />
        </mxCell>
        <mxCell id="j9h0Mle54H-UHNLb4YzA-31" value="" style="edgeStyle=orthogonalEdgeStyle;rounded=0;orthogonalLoop=1;jettySize=auto;html=1;" edge="1" parent="j9h0Mle54H-UHNLb4YzA-20" source="j9h0Mle54H-UHNLb4YzA-28" target="j9h0Mle54H-UHNLb4YzA-30">
          <mxGeometry relative="1" as="geometry" />
        </mxCell>
        <mxCell id="j9h0Mle54H-UHNLb4YzA-28" value="SETUP UART&lt;br&gt;(ESP32 - PC)" style="whiteSpace=wrap;html=1;strokeWidth=2;" vertex="1" parent="j9h0Mle54H-UHNLb4YzA-20">
          <mxGeometry x="212.5" y="173" width="115" height="50" as="geometry" />
        </mxCell>
        <mxCell id="j9h0Mle54H-UHNLb4YzA-30" value="DESLIGA&lt;br&gt;SIM7600E" style="whiteSpace=wrap;html=1;strokeWidth=2;" vertex="1" parent="j9h0Mle54H-UHNLb4YzA-20">
          <mxGeometry x="212.5" y="240" width="115" height="50" as="geometry" />
        </mxCell>
        <mxCell id="j9h0Mle54H-UHNLb4YzA-32" value="SETUP&lt;br&gt;DE PINOS" style="whiteSpace=wrap;html=1;strokeWidth=2;" vertex="1" parent="j9h0Mle54H-UHNLb4YzA-20">
          <mxGeometry x="212.5" y="105" width="115" height="50" as="geometry" />
        </mxCell>
        <mxCell id="j9h0Mle54H-UHNLb4YzA-33" value="SETUP&lt;br&gt;DE PINOS" style="whiteSpace=wrap;html=1;strokeWidth=2;" vertex="1" parent="j9h0Mle54H-UHNLb4YzA-20">
          <mxGeometry x="212.5" y="105" width="115" height="50" as="geometry" />
        </mxCell>
        <mxCell id="j9h0Mle54H-UHNLb4YzA-21" value="SIM7600E" style="swimlane;startSize=20;html=1;" vertex="1" parent="j9h0Mle54H-UHNLb4YzA-19">
          <mxGeometry x="540" y="20" width="540" height="810" as="geometry" />
        </mxCell>
        <mxCell id="j9h0Mle54H-UHNLb4YzA-26" value="FLIGHT_MODE &lt;br&gt;= &lt;br&gt;HIGH" style="whiteSpace=wrap;html=1;strokeWidth=1;dashed=1;" vertex="1" parent="j9h0Mle54H-UHNLb4YzA-21">
          <mxGeometry x="217.5" y="100" width="105" height="60" as="geometry" />
        </mxCell>
        <mxCell id="j9h0Mle54H-UHNLb4YzA-34" value="AT+CPOF&lt;br&gt;&amp;amp;&amp;amp;&lt;br&gt;PWR_PIN PULSE" style="whiteSpace=wrap;html=1;strokeWidth=1;dashed=1;" vertex="1" parent="j9h0Mle54H-UHNLb4YzA-21">
          <mxGeometry x="212.5" y="240" width="115" height="50" as="geometry" />
        </mxCell>
        <mxCell id="j9h0Mle54H-UHNLb4YzA-35" value="" style="edgeStyle=orthogonalEdgeStyle;rounded=0;orthogonalLoop=1;jettySize=auto;html=1;dashed=1;endArrow=none;endFill=0;" edge="1" parent="j9h0Mle54H-UHNLb4YzA-19" source="j9h0Mle54H-UHNLb4YzA-30" target="j9h0Mle54H-UHNLb4YzA-34">
          <mxGeometry relative="1" as="geometry" />
        </mxCell>
      </root>
    </mxGraphModel>
  </diagram>
</mxfile>
